<?xml version="1.0" encoding="UTF-8"?>
<!DOCTYPE svg PUBLIC "-//W3C//DTD SVG 1.1//EN" "http://www.w3.org/Graphics/SVG/1.1/DTD/svg11.dtd">
<!-- Creator: CorelDRAW 2017 -->
<svg xmlns="http://www.w3.org/2000/svg" xml:space="preserve" width="444px" height="80px" version="1.1" style="shape-rendering:geometricPrecision; text-rendering:geometricPrecision; image-rendering:optimizeQuality; fill-rule:evenodd; clip-rule:evenodd"
viewBox="0 0 444 80"
 xmlns:xlink="http://www.w3.org/1999/xlink">
 <defs>
  <style type="text/css">
   <![CDATA[
    .fil1 {fill:#D22070;fill-rule:nonzero}
    .fil0 {fill:#D33B78;fill-rule:nonzero}
    .fil2 {fill:white;fill-rule:nonzero}
   ]]>
  </style>
 </defs>
 <g id="Layer_x0020_1">
  <metadata id="CorelCorpID_0Corel-Layer"/>
  <path class="fil0" d="M64.52 5.47c-8.66,-1.31 -18.02,3.28 -21.02,11.46 -1.5,-3.92 -4.63,-7.17 -8.28,-9.21 -6.11,-3.41 -12.11,-3.46 -18.64,-0.71 -5.05,2.13 -9.01,7.72 -11.11,12.58 -0.86,1.98 -1.29,4.09 -1.44,6.27l0 3.67c0.21,3.41 0.95,6.84 1.77,9.95 0.31,1.16 2.11,0.67 1.8,-0.49 -2.75,-10.39 -2.29,-21.87 7.17,-28.82 4.46,-3.26 12.11,-4.42 17.06,-2.16 5.18,2.37 10.33,7.01 10.73,13.05 0.08,1.21 1.77,1.2 1.86,0 0.98,-11.08 14.58,-17.01 24.11,-12.48 10.14,4.8 14.41,18.4 11.08,28.69 -2.11,6.51 -10.46,4.88 -15.95,4.92 -3.13,0.02 -6.23,0.05 -9.36,0.03 -0.42,-0.01 -2.15,0 -2.09,0.02 -0.5,-0.29 -1.76,-4.02 -2.05,-4.77 -0.39,-1.01 -1.7,-0.8 -1.84,0.24 -0.6,4.83 -1.86,9.52 -2.87,14.27 -0.96,-7.98 -1.37,-16.04 -2.69,-23.99 -0.15,-0.91 -1.6,-0.84 -1.79,0 -1.28,5.56 -2.57,11.09 -3.85,16.65 -0.57,-2.58 -1.15,-5.16 -1.72,-7.73 -0.18,-0.86 -1.65,-0.92 -1.8,0 -0.19,1.28 -0.51,4.75 -1.37,5.37 -0.6,0.41 -2.82,-0.01 -3.59,-0.02 -3.38,-0.03 -6.76,-0.05 -10.13,-0.07 -3.7,-0.03 -9.5,-0.76 -9.34,4.77 0.09,2.9 2.77,5.85 4.5,8 2.48,3.1 5.45,5.78 8.58,8.24 6.44,5.02 13.61,8.93 20.57,13.18l0.94 0c12.59,-6.87 22.75,-15.78 31.7,-27 0.74,-0.94 -0.57,-2.26 -1.31,-1.32 -5.92,7.43 -12.46,14.45 -20.28,19.87 -2.5,1.71 -7.97,6.69 -11.07,6.26 -1.45,-0.19 -3.47,-2.06 -4.74,-2.81 -1.96,-1.17 -3.91,-2.34 -5.83,-3.54 -4.23,-2.66 -8.39,-5.49 -12.12,-8.84 -2.24,-2.01 -13.4,-12.7 -6.05,-14.98 2.78,-0.86 7.32,0.06 10.23,0.07 2.9,0.02 5.78,0.03 8.67,0.06 0.43,0 0.78,-0.3 0.91,-0.69 0.21,-0.71 0.42,-1.41 0.61,-2.11 0.58,2.58 1.15,5.16 1.72,7.73 0.21,0.9 1.6,0.89 1.8,0 1.21,-5.26 2.44,-10.52 3.66,-15.79 1.05,8.27 1.42,16.62 2.8,24.87 0.18,1.12 1.71,0.67 1.83,-0.26 0.7,-5.62 2.31,-11.05 3.33,-16.61 0.64,1.39 1.5,2.5 3.2,2.78 4.21,0.68 9.16,0 13.42,-0.03 3.92,-0.03 9.12,0.85 12.39,-1.81 2.83,-2.29 3.4,-6.34 3.7,-9.74 1.01,-11.52 -5.3,-25.13 -17.81,-27.02l0 0 0 0z"/>
  <path class="fil1" d="M112.59 64.95l0 0 -1.51 0 -1.51 0 0 0 0 -46.17 0 0 1.6 0 1.64 0 0 0 9.91 23.93 0.02 0 0 0 9.73 -23.93 0 0 1.66 0 1.67 0 0 0 0 46.17 0 0 -1.51 0 -1.51 0 0 0 0 -39.66 0.01 0 -9.42 23.05 -0.68 0 -0.69 0 -9.39 -22.76 -0.02 0 0 39.37zm39.81 0.96c-2.86,0 -5.18,-1.08 -6.97,-3.23 -1.81,-2.16 -2.71,-4.92 -2.71,-8.31 0,-3.5 0.94,-6.31 2.81,-8.42 1.87,-2.13 4.34,-3.19 7.42,-3.19 3.28,0 5.87,0.57 7.77,1.69l0.16 0.1 0 0 -0.02 -2.75c0,-3.23 -0.55,-5.58 -1.62,-7.06 -1.1,-1.49 -2.82,-2.24 -5.18,-2.24 -1.36,0 -2.71,0.18 -4.07,0.56 -1.36,0.37 -2.56,0.9 -3.63,1.56l0 0 -1.14 -2.37 0 0c1.17,-0.75 2.58,-1.34 4.21,-1.76 1.65,-0.41 3.33,-0.62 5.07,-0.62 3.11,0 5.45,1 7,2.98 1.55,1.99 2.32,4.97 2.32,8.97l0 13.46c0,1.77 0.13,3.57 0.4,5.36 0.25,1.8 0.61,3.41 1.07,4.83l0 0 0 0 -2.86 0.44 0 0 -1.09 -5.32 0 0c-0.82,1.02 -1.71,1.93 -2.67,2.72 -2.12,1.73 -4.2,2.6 -6.27,2.6zm8.5 -8.88l-0.01 -9.64 0 0c-0.44,-0.29 -1.03,-0.58 -1.79,-0.88 -1.87,-0.74 -3.67,-1.12 -5.39,-1.12 -2.42,0 -4.36,0.82 -5.83,2.47 -1.47,1.65 -2.2,3.82 -2.2,6.51 0,2.61 0.64,4.74 1.94,6.41 1.29,1.67 2.95,2.5 4.96,2.5 1.6,0 3.23,-0.71 4.91,-2.16 1.31,-1.12 2.44,-2.49 3.41,-4.09zm18.82 7.92l0 0 -1.47 0 -1.48 0 0 0 0 -34.11 0 0 2.04 0 2.03 0 0 0 6.01 15.91 -0.03 0 0 0 5.95 -15.91 0 0 2.03 0 2.04 0 0 0 0 34.11 0 0 -1.47 0 -1.48 0 0 0 0 -29.42 0.04 0 -6.44 17.17 -0.68 0 -0.69 0 -6.41 -16.98 0.01 0 0 29.23zm36.8 0.96c-2.86,0 -5.18,-1.08 -6.97,-3.23 -1.81,-2.16 -2.7,-4.92 -2.7,-8.31 0,-3.5 0.94,-6.31 2.81,-8.42 1.87,-2.13 4.33,-3.19 7.41,-3.19 3.28,0 5.87,0.57 7.77,1.69l0.16 0.1 0 0 -0.02 -2.75c0,-3.23 -0.54,-5.58 -1.62,-7.06 -1.09,-1.49 -2.81,-2.24 -5.17,-2.24 -1.36,0 -2.72,0.18 -4.08,0.56 -1.35,0.37 -2.56,0.9 -3.63,1.56l0 0 -1.13 -2.37 0 0c1.16,-0.75 2.57,-1.34 4.21,-1.76 1.64,-0.41 3.32,-0.62 5.06,-0.62 3.11,0 5.45,1 7,2.98 1.55,1.99 2.32,4.97 2.32,8.97l0 13.46c0,1.77 0.13,3.57 0.4,5.36 0.25,1.8 0.62,3.41 1.08,4.83l0 0 0 0 -2.87 0.44 0 0 -1.09 -5.32 0 0c-0.82,1.02 -1.71,1.93 -2.67,2.72 -2.12,1.73 -4.2,2.6 -6.27,2.6zm8.5 -8.88l-0.01 -9.64 0 0c-0.43,-0.29 -1.03,-0.58 -1.79,-0.88 -1.87,-0.74 -3.67,-1.12 -5.39,-1.12 -2.41,0 -4.36,0.82 -5.82,2.47 -1.48,1.65 -2.2,3.82 -2.2,6.51 0,2.61 0.64,4.74 1.93,6.41 1.29,1.67 2.95,2.5 4.96,2.5 1.6,0 3.24,-0.71 4.91,-2.16 1.31,-1.12 2.44,-2.49 3.41,-4.09z"/>
  <path class="fil2" d="M258.16 64.95l10.42 -23.16 0 0 -10.45 -23.01 0 0 1.57 0 1.59 0 0 0 8.85 19.62 0 0 0 0 8.79 -19.62 0 0 1.6 0 1.6 0 0 0 -10.37 23.12 0 0 10.43 23.05 0 0 -1.56 0 -1.6 0 0 0 -8.88 -19.62 0 0 0 0 -8.8 19.62 0 0 -1.6 0 -1.59 0zm27.03 4.36l2.57 -1.43c0.48,1.87 1.1,3.24 1.87,4.1 0.76,0.87 1.75,1.31 2.99,1.31 1.23,0 2.32,-0.43 3.28,-1.28 0.97,-0.84 1.86,-2.18 2.7,-4l2.82 -7.32 0 -0.05 -10.88 -29.8 0 0 1.57 0 1.56 0 0 0 9.32 25.67 0.01 0 0 0 9.63 -25.67 0 0 1.57 0 1.6 0 0 0 -13.99 37.15c-1.32,2.9 -2.67,4.94 -4.04,6.13 -1.36,1.17 -3.06,1.76 -5.09,1.76 -2.07,0 -3.69,-0.52 -4.89,-1.56 -1.18,-1.05 -2.05,-2.71 -2.6,-5.01zm43.37 -38.47l0 0 14.82 0 0 0 0 31.54 1.86 0 0 10.07 -2.95 0 0 -7.5 -16.23 0 0 7.5 -2.95 0 0 -10.07 1.92 0 -0.04 0c0.75,-1.81 1.43,-4.57 2,-8.28 1.05,-6.59 1.57,-14.34 1.57,-23.26zm11.87 2.56l0 0 -8.98 0 0 0c-0.04,7.83 -0.55,14.73 -1.51,20.71 -0.59,3.66 -1.25,6.43 -2.01,8.27l0 0 12.5 0 0 0 0 -28.98zm26.72 32.51c-4.23,0 -7.54,-1.59 -9.94,-4.77 -2.38,-3.17 -3.57,-7.57 -3.57,-13.22 0,-5.66 1.18,-10.08 3.54,-13.27 2.38,-3.18 5.66,-4.78 9.85,-4.78 3.9,0 6.93,1.6 9.11,4.79 2.18,3.19 3.27,7.61 3.27,13.28l0 0.59 0 0 -22.83 0 0 0c0.07,4.63 1,8.24 2.79,10.85 1.81,2.6 4.39,3.9 7.75,3.9 1.77,0 3.44,-0.34 5.04,-1.03 1.6,-0.69 2.95,-1.64 4.02,-2.85l0 0 2.21 1.44 0 0c-1.4,1.6 -3.09,2.84 -5.07,3.73 -1.99,0.89 -4.04,1.34 -6.17,1.34zm9.17 -19.94l0 0c-0.16,-4.02 -0.97,-7.17 -2.4,-9.47 -1.66,-2.66 -4.01,-4 -7.05,-4 -3.29,0 -5.82,1.34 -7.62,4 -1.5,2.3 -2.38,5.45 -2.63,9.47l0 0 19.7 0zm22.89 19.94c-4.23,0 -7.54,-1.59 -9.93,-4.77 -2.39,-3.17 -3.58,-7.57 -3.58,-13.22 0,-5.66 1.18,-10.08 3.54,-13.27 2.38,-3.18 5.66,-4.78 9.85,-4.78 3.9,0 6.93,1.6 9.11,4.79 2.18,3.19 3.27,7.61 3.27,13.28l0 0.59 0 0 -22.82 0 0 0c0.06,4.63 0.99,8.24 2.79,10.85 1.8,2.6 4.38,3.9 7.74,3.9 1.77,0 3.44,-0.34 5.04,-1.03 1.6,-0.69 2.95,-1.64 4.03,-2.85l0 0 2.2 1.44 0 0c-1.4,1.6 -3.09,2.84 -5.07,3.73 -1.99,0.89 -4.04,1.34 -6.17,1.34zm9.18 -19.94l0 0c-0.17,-4.02 -0.98,-7.17 -2.41,-9.47 -1.66,-2.66 -4.01,-4 -7.05,-4 -3.28,0 -5.82,1.34 -7.62,4 -1.5,2.3 -2.38,5.45 -2.63,9.47l0 0 19.71 0zm20.78 18.98l0 -31.55 0 0 -9.87 0 0 0 0 -1.27 0 -1.29 0 0 22.7 0 0 0 0 1.26 0 1.3 0 0 -9.88 0 0 0 0 31.55 0 0 -1.47 0 -1.48 0z"/>
 </g>
</svg>
