<svg xmlns="http://www.w3.org/2000/svg" width="19.894" height="14.924" viewBox="0 0 19.894 14.924"><defs><style>.a{fill:#fff;}</style></defs><path class="a" d="M19.764,7.8A3.021,3.021,0,0,0,16.889,4.64c-2.153-.1-4.349-.14-6.591-.14H9.6c-2.238,0-4.438.039-6.591.14A3.027,3.027,0,0,0,.136,7.8C.039,9.187,0,10.57,0,11.954s.039,2.767.132,4.154A3.031,3.031,0,0,0,3,19.275c2.262.1,4.582.152,6.941.148s4.675-.039,6.941-.148a3.031,3.031,0,0,0,2.876-3.167c.093-1.387.136-2.771.132-4.158S19.858,9.183,19.764,7.8Zm-11.72,7.97V8.13l5.635,3.816Z" transform="translate(0 -4.5)"/></svg>