<svg xmlns="http://www.w3.org/2000/svg" width="16.308" height="16.309" viewBox="0 0 16.308 16.309"><defs><style>.a{fill:#fff;}</style></defs><path class="a" d="M16.172,1.928H5.278A2.715,2.715,0,0,0,2.571,4.635V15.529a2.715,2.715,0,0,0,2.707,2.707H16.172a2.715,2.715,0,0,0,2.707-2.707V4.635A2.715,2.715,0,0,0,16.172,1.928ZM7.791,9.063h5.867a3.106,3.106,0,1,1-5.867,0Zm9.049,0v6.115A1.022,1.022,0,0,1,15.821,16.2H5.629a1.022,1.022,0,0,1-1.019-1.019V9.063H6.2a4.635,4.635,0,1,0,9.043,0Zm0-3.568a.511.511,0,0,1-.51.51H15.312a.511.511,0,0,1-.51-.51V4.476a.511.511,0,0,1,.51-.51h1.019a.511.511,0,0,1,.51.51Z" transform="translate(-2.571 -1.928)"/></svg>