<?xml version="1.0" encoding="UTF-8"?>
<!DOCTYPE svg PUBLIC "-//W3C//DTD SVG 1.1//EN" "http://www.w3.org/Graphics/SVG/1.1/DTD/svg11.dtd">
<!-- Creator: CorelDRAW 2017 -->
<svg xmlns="http://www.w3.org/2000/svg" xml:space="preserve" width="444px" height="80px" version="1.1" style="shape-rendering:geometricPrecision; text-rendering:geometricPrecision; image-rendering:optimizeQuality; fill-rule:evenodd; clip-rule:evenodd"
viewBox="0 0 444 80"
 xmlns:xlink="http://www.w3.org/1999/xlink">
 <defs>
  <style type="text/css">
   <![CDATA[
    .fil2 {fill:black;fill-rule:nonzero}
    .fil1 {fill:#D22070;fill-rule:nonzero}
    .fil0 {fill:#D33B78;fill-rule:nonzero}
   ]]>
  </style>
 </defs>
 <g id="Layer_x0020_1">
  <metadata id="CorelCorpID_0Corel-Layer"/>
  <path class="fil0" d="M64.42 4.4c-8.57,-1.3 -17.84,3.25 -20.81,11.35 -1.49,-3.89 -4.59,-7.1 -8.2,-9.13 -6.06,-3.37 -12,-3.42 -18.46,-0.7 -5.01,2.11 -8.93,7.65 -11.01,12.46 -0.85,1.96 -1.28,4.05 -1.42,6.21l0 3.63c0.2,3.38 0.94,6.78 1.75,9.86 0.31,1.15 2.09,0.66 1.78,-0.49 -2.72,-10.29 -2.27,-21.65 7.1,-28.54 4.42,-3.23 12,-4.38 16.9,-2.14 5.13,2.35 10.23,6.94 10.63,12.93 0.07,1.2 1.75,1.18 1.84,0 0.97,-10.98 14.44,-16.85 23.88,-12.36 10.04,4.75 14.27,18.22 10.97,28.41 -2.09,6.45 -10.36,4.83 -15.8,4.87 -3.1,0.02 -6.17,0.05 -9.27,0.03 -0.41,-0.01 -2.13,0 -2.07,0.02 -0.49,-0.28 -1.74,-3.98 -2.03,-4.72 -0.38,-1 -1.68,-0.79 -1.82,0.24 -0.59,4.78 -1.84,9.42 -2.84,14.13 -0.95,-7.9 -1.36,-15.89 -2.67,-23.76 -0.14,-0.9 -1.58,-0.83 -1.77,0 -1.27,5.51 -2.54,10.98 -3.81,16.49 -0.57,-2.56 -1.14,-5.11 -1.71,-7.66 -0.17,-0.85 -1.63,-0.91 -1.78,0 -0.19,1.27 -0.5,4.71 -1.36,5.32 -0.59,0.41 -2.79,-0.01 -3.55,-0.02 -3.35,-0.03 -6.7,-0.05 -10.03,-0.07 -3.67,-0.03 -9.41,-0.75 -9.25,4.73 0.09,2.87 2.74,5.79 4.45,7.92 2.46,3.07 5.4,5.73 8.5,8.16 6.38,4.97 13.48,8.85 20.37,13.06l0.93 0c12.47,-6.81 22.54,-15.63 31.4,-26.75 0.73,-0.93 -0.56,-2.23 -1.3,-1.3 -5.86,7.36 -12.34,14.31 -20.08,19.68 -2.48,1.69 -7.9,6.62 -10.97,6.2 -1.43,-0.19 -3.43,-2.04 -4.69,-2.79 -1.94,-1.16 -3.87,-2.31 -5.78,-3.5 -4.18,-2.64 -8.3,-5.44 -12,-8.76 -2.22,-1.99 -13.27,-12.58 -5.99,-14.83 2.75,-0.86 7.25,0.06 10.13,0.06 2.87,0.02 5.73,0.03 8.59,0.07 0.42,0 0.77,-0.3 0.9,-0.69 0.21,-0.7 0.41,-1.39 0.6,-2.09 0.58,2.56 1.14,5.11 1.71,7.66 0.2,0.89 1.58,0.88 1.78,0 1.2,-5.21 2.42,-10.42 3.63,-15.64 1.03,8.19 1.4,16.46 2.77,24.63 0.18,1.11 1.69,0.66 1.81,-0.26 0.69,-5.56 2.29,-10.94 3.3,-16.45 0.63,1.38 1.48,2.48 3.17,2.75 4.17,0.68 9.07,0 13.29,-0.02 3.88,-0.03 9.03,0.84 12.27,-1.8 2.8,-2.27 3.37,-6.28 3.66,-9.64 1,-11.41 -5.24,-24.89 -17.63,-26.76l0 0 0 0 -0.01 0z"/>
  <path class="fil1" d="M112.03 63.31l0 0 -1.49 0 -1.49 0 0 0 0 -45.72 0 0 1.58 0 1.62 0 0 0 9.81 23.69 0.03 0 0 0 9.64 -23.69 0 0 1.64 0 1.65 0 0 0 0 45.72 0 0 -1.49 0 -1.5 0 0 0 0 -39.28 0.01 0 -9.33 22.83 -0.68 0 -0.67 0 -9.31 -22.54 -0.02 0 0 38.99zm39.43 0.95c-2.83,0 -5.13,-1.07 -6.91,-3.2 -1.78,-2.14 -2.67,-4.88 -2.67,-8.23 0,-3.46 0.93,-6.25 2.78,-8.34 1.85,-2.11 4.3,-3.15 7.35,-3.15 3.24,0 5.81,0.56 7.69,1.67l0.16 0.09 0 0 -0.02 -2.72c0,-3.19 -0.54,-5.52 -1.61,-6.99 -1.08,-1.47 -2.79,-2.22 -5.12,-2.22 -1.35,0 -2.69,0.18 -4.04,0.55 -1.34,0.38 -2.54,0.89 -3.59,1.55l0 0 -1.13 -2.35 0 0c1.16,-0.74 2.55,-1.32 4.17,-1.73 1.63,-0.42 3.29,-0.62 5.02,-0.62 3.08,0 5.4,0.98 6.93,2.95 1.54,1.97 2.3,4.93 2.3,8.88l0 13.33c0,1.75 0.13,3.53 0.39,5.31 0.25,1.78 0.61,3.38 1.07,4.78l0 0 0 0 -2.84 0.44 0 0 -1.08 -5.27 0 0c-0.81,1.01 -1.69,1.91 -2.64,2.7 -2.1,1.71 -4.16,2.57 -6.21,2.57zm8.42 -8.8l-0.01 -9.54 0 0c-0.44,-0.29 -1.03,-0.57 -1.78,-0.87 -1.85,-0.74 -3.63,-1.11 -5.33,-1.11 -2.4,0 -4.32,0.81 -5.77,2.44 -1.46,1.63 -2.18,3.78 -2.18,6.45 0,2.58 0.63,4.7 1.91,6.35 1.29,1.65 2.92,2.47 4.91,2.47 1.59,0 3.21,-0.7 4.87,-2.13 1.29,-1.11 2.42,-2.47 3.38,-4.06zm18.64 7.85l0 0 -1.46 0 -1.46 0 0 0 0 -33.79 0 0 2.02 0 2.01 0 0 0 5.95 15.76 -0.04 0 0 0 5.9 -15.76 0 0 2.01 0 2.02 0 0 0 0 33.79 0 0 -1.46 0 -1.46 0 0 0 0 -29.14 0.03 0 -6.37 17.01 -0.68 0 -0.67 0 -6.35 -16.82 0.01 0 0 28.95zm36.44 0.95c-2.83,0 -5.13,-1.07 -6.91,-3.2 -1.78,-2.14 -2.67,-4.88 -2.67,-8.23 0,-3.46 0.93,-6.25 2.78,-8.34 1.85,-2.11 4.3,-3.15 7.35,-3.15 3.25,0 5.81,0.56 7.69,1.67l0.16 0.09 0 0 -0.02 -2.72c0,-3.19 -0.54,-5.52 -1.61,-6.99 -1.08,-1.47 -2.78,-2.22 -5.12,-2.22 -1.35,0 -2.69,0.18 -4.04,0.55 -1.34,0.38 -2.54,0.89 -3.59,1.55l0 0 -1.13 -2.35 0 0c1.16,-0.74 2.56,-1.32 4.17,-1.73 1.63,-0.42 3.29,-0.62 5.02,-0.62 3.08,0 5.4,0.98 6.93,2.95 1.54,1.97 2.3,4.93 2.3,8.88l0 13.33c0,1.75 0.13,3.53 0.39,5.31 0.25,1.78 0.61,3.38 1.07,4.78l0 0 0 0 -2.84 0.44 0 0 -1.08 -5.27 0 0c-0.81,1.01 -1.69,1.91 -2.64,2.7 -2.1,1.71 -4.16,2.57 -6.21,2.57zm8.42 -8.8l-0.01 -9.54 0 0c-0.43,-0.29 -1.03,-0.57 -1.78,-0.87 -1.85,-0.74 -3.63,-1.11 -5.33,-1.11 -2.39,0 -4.32,0.81 -5.77,2.44 -1.46,1.63 -2.18,3.78 -2.18,6.45 0,2.58 0.63,4.7 1.91,6.35 1.29,1.65 2.93,2.47 4.92,2.47 1.58,0 3.2,-0.7 4.86,-2.13 1.29,-1.11 2.42,-2.47 3.38,-4.06z"/>
  <path class="fil2" d="M256.2 63.31l10.32 -22.94 0 0 -10.35 -22.78 0 0 1.55 0 1.58 0 0 0 8.76 19.43 0 0 0 0 8.71 -19.43 0 0 1.58 0 1.59 0 0 0 -10.27 22.89 0 0 10.33 22.83 0 0 -1.54 0 -1.59 0 0 0 -8.8 -19.44 0 0 0 0 -8.71 19.44 0 0 -1.58 0 -1.58 0zm26.78 4.31l2.53 -1.41c0.48,1.85 1.1,3.2 1.86,4.06 0.75,0.86 1.73,1.29 2.96,1.29 1.22,0 2.3,-0.42 3.25,-1.26 0.95,-0.83 1.84,-2.16 2.67,-3.97l2.79 -7.25 0 -0.04 -10.77 -29.52 0 0 1.55 0 1.55 0 0 0 9.23 25.42 0.01 0 0 0 9.53 -25.42 0 0 1.56 0 1.59 0 0 0 -13.86 36.8c-1.31,2.87 -2.64,4.89 -4,6.07 -1.35,1.16 -3.04,1.74 -5.05,1.74 -2.04,0 -3.65,-0.52 -4.83,-1.54 -1.18,-1.04 -2.03,-2.69 -2.57,-4.97zm42.94 -38.1l0 0 14.67 0 0 0 0 31.25 1.84 0 0 9.97 -2.92 0 0 -7.43 -16.06 0 0 7.43 -2.92 0 0 -9.97 1.89 0 -0.03 0c0.74,-1.8 1.41,-4.53 1.98,-8.21 1.03,-6.53 1.55,-14.2 1.55,-23.04zm11.75 2.54l0 0 -8.89 0 0 0c-0.04,7.76 -0.54,14.59 -1.49,20.51 -0.58,3.62 -1.24,6.36 -1.99,8.2l0 0 12.37 0 0 0 0 -28.71zm26.47 32.2c-4.19,0 -7.47,-1.58 -9.84,-4.72 -2.36,-3.14 -3.55,-7.51 -3.55,-13.09 0,-5.61 1.18,-9.99 3.52,-13.15 2.34,-3.15 5.59,-4.73 9.74,-4.73 3.87,0 6.87,1.58 9.03,4.74 2.16,3.16 3.24,7.54 3.24,13.15l0 0.59 0 0 -22.61 0 0 0c0.07,4.58 0.99,8.16 2.77,10.74 1.78,2.57 4.33,3.86 7.67,3.86 1.74,0 3.41,-0.33 4.98,-1.02 1.59,-0.68 2.92,-1.62 3.99,-2.82l0 0 2.18 1.43 0 0c-1.38,1.58 -3.06,2.81 -5.01,3.7 -1.97,0.87 -4,1.32 -6.11,1.32zm9.08 -19.75l0 0c-0.16,-3.98 -0.96,-7.1 -2.38,-9.38 -1.64,-2.63 -3.97,-3.96 -6.99,-3.96 -3.25,0 -5.75,1.33 -7.54,3.96 -1.48,2.28 -2.35,5.4 -2.61,9.38l0 0 19.52 0zm22.67 19.75c-4.19,0 -7.47,-1.58 -9.84,-4.72 -2.36,-3.14 -3.55,-7.51 -3.55,-13.09 0,-5.61 1.18,-9.99 3.52,-13.15 2.35,-3.15 5.59,-4.73 9.74,-4.73 3.87,0 6.87,1.58 9.03,4.74 2.16,3.16 3.24,7.54 3.24,13.15l0 0.59 0 0 -22.61 0 0 0c0.07,4.58 0.99,8.16 2.77,10.74 1.78,2.57 4.34,3.86 7.67,3.86 1.75,0 3.41,-0.33 4.98,-1.02 1.59,-0.68 2.92,-1.62 3.99,-2.82l0 0 2.18 1.43 0 0c-1.38,1.58 -3.06,2.81 -5.01,3.7 -1.97,0.87 -4,1.32 -6.11,1.32zm9.08 -19.75l0 0c-0.16,-3.98 -0.96,-7.1 -2.38,-9.38 -1.64,-2.63 -3.97,-3.96 -6.99,-3.96 -3.24,0 -5.75,1.33 -7.54,3.96 -1.48,2.28 -2.35,5.4 -2.6,9.38l0 0 19.51 0zm20.59 18.8l0 -31.25 0 0 -9.78 0 0 0 0 -1.26 0 -1.28 0 0 22.48 0 0 0 0 1.25 0 1.29 0 0 -9.78 0 0 0 0 31.25 0 0 -1.46 0 -1.46 0z"/>
 </g>
</svg>
