<?xml version="1.0" encoding="UTF-8"?>
<!DOCTYPE svg PUBLIC "-//W3C//DTD SVG 1.1//EN" "http://www.w3.org/Graphics/SVG/1.1/DTD/svg11.dtd">
<!-- Creator: CorelDRAW 2017 -->
<svg xmlns="http://www.w3.org/2000/svg" xml:space="preserve" width="444px" height="80px" version="1.1" style="shape-rendering:geometricPrecision; text-rendering:geometricPrecision; image-rendering:optimizeQuality; fill-rule:evenodd; clip-rule:evenodd"
viewBox="0 0 444 80"
 xmlns:xlink="http://www.w3.org/1999/xlink">
 <defs>
  <style type="text/css">
   <![CDATA[
    .fil2 {fill:black;fill-rule:nonzero}
    .fil1 {fill:#D22070;fill-rule:nonzero}
    .fil0 {fill:#D33B78;fill-rule:nonzero}
   ]]>
  </style>
 </defs>
 <g id="Layer_x0020_1">
  <metadata id="CorelCorpID_0Corel-Layer"/>
  <path class="fil0" d="M77.16 9.46c-7.56,-1.15 -15.73,2.86 -18.35,10 -1.31,-3.42 -4.04,-6.26 -7.23,-8.04 -5.33,-2.98 -10.57,-3.02 -16.27,-0.62 -4.41,1.86 -7.87,6.74 -9.7,10.98 -2.32,5.37 -1.14,11.93 0.29,17.37 0.27,1.01 1.84,0.58 1.57,-0.43 -2.4,-9.07 -2,-19.09 6.26,-25.16 3.89,-2.85 10.57,-3.86 14.89,-1.89 4.52,2.07 9.02,6.12 9.37,11.4 0.07,1.05 1.54,1.04 1.62,0 0.86,-9.68 12.73,-14.85 21.05,-10.9 8.85,4.19 12.58,16.06 9.67,25.05 -1.84,5.68 -9.13,4.26 -13.92,4.29 -2.73,0.02 -5.44,0.05 -8.17,0.03 -0.37,-0.01 -1.88,0 -1.83,0.02 -0.43,-0.26 -1.53,-3.51 -1.79,-4.17 -0.34,-0.88 -1.48,-0.7 -1.6,0.21 -0.53,4.22 -1.63,8.31 -2.51,12.46 -0.84,-6.97 -1.19,-14 -2.35,-20.94 -0.13,-0.8 -1.39,-0.74 -1.56,0 -1.12,4.85 -2.24,9.68 -3.36,14.53 -0.5,-2.25 -1,-4.5 -1.5,-6.75 -0.16,-0.75 -1.44,-0.8 -1.57,0 -0.17,1.12 -0.45,4.15 -1.2,4.69 -0.52,0.36 -2.46,-0.01 -3.13,-0.02 -2.95,-0.02 -5.9,-0.04 -8.85,-0.06 -3.23,-0.02 -8.29,-0.66 -8.15,4.17 0.08,2.53 2.42,5.1 3.93,6.98 2.16,2.71 4.76,5.05 7.49,7.19 5.62,4.39 11.88,7.8 17.96,11.51l0.82 0c10.99,-6 19.86,-13.78 27.67,-23.57 0.65,-0.82 -0.5,-1.97 -1.14,-1.15 -5.17,6.48 -10.88,12.61 -17.71,17.34 -2.18,1.5 -6.95,5.84 -9.66,5.47 -1.27,-0.17 -3.03,-1.8 -4.14,-2.46 -1.71,-1.02 -3.41,-2.04 -5.09,-3.09 -3.69,-2.32 -7.32,-4.79 -10.58,-7.71 -1.95,-1.76 -11.7,-11.09 -5.28,-13.08 2.43,-0.75 6.39,0.05 8.93,0.06 2.53,0.02 5.05,0.03 7.57,0.05 0.37,0 0.68,-0.26 0.79,-0.6 0.19,-0.62 0.37,-1.23 0.54,-1.84 0.5,2.25 1,4.5 1.5,6.75 0.18,0.78 1.39,0.77 1.57,0 1.06,-4.59 2.13,-9.19 3.19,-13.79 0.92,7.22 1.24,14.51 2.45,21.71 0.16,0.98 1.49,0.59 1.6,-0.22 0.61,-4.91 2.01,-9.65 2.9,-14.5 0.56,1.21 1.31,2.18 2.8,2.42 3.67,0.6 7.99,0 11.71,-0.02 3.42,-0.03 7.96,0.74 10.82,-1.58 2.47,-2 2.97,-5.54 3.23,-8.51 0.88,-10.05 -4.63,-21.93 -15.55,-23.58l0 0z"/>
  <g id="_983523992">
   <path class="fil1" d="M119.12 61.38l0 0 -1.31 0 -1.32 0 0 0 0 -40.31 0 0 1.4 0 1.43 0 0 0 8.65 20.89 0.02 0 0 0 8.49 -20.89 0 0 1.45 0 1.46 0 0 0 0 40.31 0 0 -1.32 0 -1.31 0 0 0 0 -34.62 0 0 -8.22 20.12 -0.6 0 -0.6 0 -8.2 -19.87 -0.02 0 0 34.37zm34.76 0.84c-2.49,0 -4.52,-0.94 -6.09,-2.82 -1.57,-1.88 -2.36,-4.3 -2.36,-7.26 0,-3.05 0.82,-5.5 2.46,-7.35 1.63,-1.86 3.79,-2.78 6.47,-2.78 2.87,0 5.13,0.5 6.79,1.47l0.14 0.09 0 0 -0.02 -2.4c0,-2.82 -0.48,-4.87 -1.42,-6.17 -0.95,-1.29 -2.46,-1.95 -4.52,-1.95 -1.18,0 -2.37,0.16 -3.55,0.49 -1.19,0.32 -2.24,0.78 -3.17,1.36l0 0 -0.99 -2.07 0 0c1.01,-0.65 2.25,-1.17 3.67,-1.53 1.44,-0.36 2.91,-0.54 4.43,-0.54 2.71,0 4.75,0.87 6.11,2.6 1.35,1.74 2.02,4.34 2.02,7.83l0 11.75c0,1.55 0.11,3.11 0.35,4.68 0.22,1.57 0.54,2.98 0.94,4.22l0 0 0 0 -2.5 0.38 0 0 -0.95 -4.65 0 0c-0.72,0.9 -1.5,1.69 -2.34,2.38 -1.84,1.51 -3.66,2.27 -5.47,2.27zm7.42 -7.75l-0.01 -8.42 0 0c-0.38,-0.25 -0.9,-0.5 -1.56,-0.76 -1.63,-0.66 -3.2,-0.98 -4.7,-0.98 -2.11,0 -3.81,0.71 -5.09,2.15 -1.29,1.44 -1.92,3.33 -1.92,5.68 0,2.28 0.56,4.15 1.69,5.6 1.13,1.46 2.57,2.19 4.33,2.19 1.4,0 2.82,-0.63 4.29,-1.89 1.14,-0.98 2.13,-2.17 2.97,-3.57zm16.44 6.91l0 0 -1.29 0 -1.29 0 0 0 0 -29.78 0 0 1.78 0 1.78 0 0 0 5.24 13.89 -0.03 0 0 0 5.2 -13.89 0 0 1.77 0 1.78 0 0 0 0 29.78 0 0 -1.28 0 -1.29 0 0 0 0 -25.69 0.03 0 -5.62 15 -0.6 0 -0.6 0 -5.59 -14.83 0.01 0 0 25.52zm32.12 0.84c-2.49,0 -4.51,-0.94 -6.08,-2.82 -1.58,-1.88 -2.36,-4.3 -2.36,-7.26 0,-3.05 0.82,-5.5 2.45,-7.35 1.63,-1.86 3.79,-2.78 6.48,-2.78 2.86,0 5.12,0.5 6.78,1.47l0.14 0.09 0 0 -0.02 -2.4c0,-2.82 -0.47,-4.87 -1.42,-6.17 -0.95,-1.29 -2.45,-1.95 -4.51,-1.95 -1.19,0 -2.37,0.16 -3.56,0.49 -1.18,0.32 -2.24,0.78 -3.17,1.36l0 0 -0.99 -2.07 0 0c1.02,-0.65 2.25,-1.17 3.68,-1.53 1.43,-0.36 2.9,-0.54 4.42,-0.54 2.71,0 4.76,0.87 6.11,2.6 1.35,1.74 2.03,4.34 2.03,7.83l0 11.75c0,1.55 0.11,3.11 0.34,4.68 0.23,1.57 0.54,2.98 0.94,4.22l0 0 0 0 -2.5 0.38 0 0 -0.95 -4.65 0 0c-0.72,0.9 -1.49,1.69 -2.33,2.38 -1.85,1.51 -3.67,2.27 -5.48,2.27zm7.43 -7.75l-0.01 -8.42 0 0c-0.38,-0.25 -0.91,-0.5 -1.57,-0.76 -1.63,-0.66 -3.2,-0.98 -4.7,-0.98 -2.11,0 -3.81,0.71 -5.09,2.15 -1.28,1.44 -1.92,3.33 -1.92,5.68 0,2.28 0.56,4.15 1.69,5.6 1.13,1.46 2.58,2.19 4.33,2.19 1.4,0 2.83,-0.63 4.29,-1.89 1.14,-0.98 2.13,-2.17 2.98,-3.57z"/>
   <path class="fil2" d="M246.21 61.38l9.09 -20.22 0 0 -9.12 -20.09 0 0 1.37 0 1.39 0 0 0 7.72 17.13 0 0 0 0 7.68 -17.13 0 0 1.39 0 1.4 0 0 0 -9.05 20.18 0 0 9.11 20.13 0 0 -1.36 0 -1.4 0 0 0 -7.76 -17.13 0 0 0 0 -7.67 17.13 0 0 -1.4 0 -1.39 0zm23.6 3.81l2.24 -1.25c0.42,1.63 0.96,2.82 1.63,3.58 0.67,0.76 1.53,1.14 2.62,1.14 1.07,0 2.02,-0.37 2.86,-1.11 0.84,-0.74 1.62,-1.91 2.35,-3.5l2.47 -6.39 0 -0.04 -9.5 -26.02 0 0 1.37 0 1.36 0 0 0 8.14 22.41 0.01 0 0 0 8.4 -22.41 0 0 1.38 0 1.39 0 0 0 -12.21 32.44c-1.16,2.53 -2.33,4.31 -3.53,5.35 -1.19,1.02 -2.67,1.54 -4.45,1.54 -1.8,0 -3.22,-0.46 -4.26,-1.37 -1.04,-0.91 -1.79,-2.37 -2.27,-4.37zm37.87 -33.59l0 0 12.93 0 0 0 0 27.54 1.62 0 0 8.79 -2.57 0 0 -6.55 -14.17 0 0 6.55 -2.57 0 0 -8.79 1.67 0 -0.03 0c0.65,-1.58 1.24,-3.99 1.74,-7.23 0.92,-5.76 1.38,-12.52 1.38,-20.31zm10.35 2.24l0 0 -7.83 0 0 0c-0.04,6.84 -0.48,12.85 -1.32,18.08 -0.51,3.19 -1.09,5.61 -1.75,7.22l0 0 10.9 0 0 0 0 -25.3zm23.34 28.38c-3.7,0 -6.59,-1.39 -8.68,-4.16 -2.08,-2.77 -3.12,-6.62 -3.12,-11.54 0,-4.95 1.03,-8.81 3.09,-11.59 2.08,-2.78 4.94,-4.17 8.6,-4.17 3.4,0 6.05,1.39 7.96,4.18 1.9,2.78 2.85,6.64 2.85,11.59l0 0.52 0 0 -19.93 0 0 0c0.06,4.04 0.87,7.19 2.44,9.47 1.57,2.27 3.82,3.41 6.76,3.41 1.54,0 3.01,-0.3 4.4,-0.91 1.4,-0.6 2.57,-1.43 3.51,-2.48l0 0 1.92 1.26 0 0c-1.22,1.39 -2.69,2.47 -4.42,3.25 -1.73,0.78 -3.52,1.17 -5.38,1.17zm8 -17.41l0 0c-0.14,-3.51 -0.84,-6.26 -2.1,-8.27 -1.44,-2.32 -3.49,-3.49 -6.15,-3.49 -2.87,0 -5.08,1.17 -6.66,3.49 -1.3,2.01 -2.07,4.76 -2.29,8.27l0 0 17.2 0zm19.99 17.41c-3.69,0 -6.59,-1.39 -8.68,-4.16 -2.08,-2.77 -3.12,-6.62 -3.12,-11.54 0,-4.95 1.03,-8.81 3.1,-11.59 2.07,-2.78 4.93,-4.17 8.59,-4.17 3.4,0 6.05,1.39 7.96,4.18 1.9,2.78 2.85,6.64 2.85,11.59l0 0.52 0 0 -19.93 0 0 0c0.06,4.04 0.87,7.19 2.44,9.47 1.58,2.27 3.82,3.41 6.76,3.41 1.54,0 3.01,-0.3 4.4,-0.91 1.4,-0.6 2.57,-1.43 3.52,-2.48l0 0 1.92 1.26 0 0c-1.23,1.39 -2.7,2.47 -4.43,3.25 -1.73,0.78 -3.52,1.17 -5.38,1.17zm8.01 -17.41l0 0c-0.14,-3.51 -0.85,-6.26 -2.1,-8.27 -1.45,-2.32 -3.5,-3.49 -6.16,-3.49 -2.87,0 -5.08,1.17 -6.65,3.49 -1.31,2.01 -2.07,4.76 -2.3,8.27l0 0 17.21 0zm18.14 16.57l0 -27.54 0 0 -8.62 0 0 0 0 -1.11 0 -1.13 0 0 19.82 0 0 0 0 1.1 0 1.14 0 0 -8.62 0 0 0 0 27.54 0 0 -1.29 0 -1.29 0z"/>
  </g>
 </g>
</svg>
