<?xml version="1.0" encoding="UTF-8"?>
<!DOCTYPE svg PUBLIC "-//W3C//DTD SVG 1.1//EN" "http://www.w3.org/Graphics/SVG/1.1/DTD/svg11.dtd">
<!-- Creator: CorelDRAW 2017 -->
<svg xmlns="http://www.w3.org/2000/svg" xml:space="preserve" width="444px" height="80px" version="1.1" style="shape-rendering:geometricPrecision; text-rendering:geometricPrecision; image-rendering:optimizeQuality; fill-rule:evenodd; clip-rule:evenodd"
viewBox="0 0 444 80"
 xmlns:xlink="http://www.w3.org/1999/xlink">
 <defs>
  <style type="text/css">
   <![CDATA[
    .fil1 {fill:#D22070;fill-rule:nonzero}
    .fil0 {fill:#D33B78;fill-rule:nonzero}
    .fil2 {fill:white;fill-rule:nonzero}
   ]]>
  </style>
 </defs>
 <g id="Layer_x0020_1">
  <metadata id="CorelCorpID_0Corel-Layer"/>
  <path class="fil0" d="M66.5 3.83c-8.42,-1.27 -17.53,3.19 -20.44,11.15 -1.46,-3.82 -4.51,-6.98 -8.06,-8.96 -5.94,-3.32 -11.77,-3.36 -18.12,-0.69 -4.91,2.07 -8.76,7.51 -10.8,12.23 -0.84,1.93 -1.26,3.98 -1.41,6.1l0 3.57c0.21,3.31 0.93,6.65 1.73,9.67 0.3,1.13 2.05,0.66 1.75,-0.47 -2.68,-10.11 -2.23,-21.27 6.97,-28.03 4.34,-3.17 11.77,-4.3 16.59,-2.1 5.04,2.31 10.04,6.82 10.43,12.69 0.08,1.18 1.72,1.17 1.81,0 0.95,-10.77 14.18,-16.54 23.45,-12.13 9.86,4.66 14.01,17.89 10.77,27.9 -2.05,6.32 -10.17,4.74 -15.51,4.78 -3.04,0.02 -6.06,0.05 -9.1,0.03 -0.41,-0.01 -2.09,0 -2.03,0.02 -0.49,-0.28 -1.71,-3.91 -2,-4.64 -0.38,-0.98 -1.65,-0.78 -1.79,0.23 -0.58,4.7 -1.8,9.26 -2.79,13.88 -0.93,-7.76 -1.33,-15.6 -2.61,-23.33 -0.15,-0.88 -1.56,-0.82 -1.74,0 -1.25,5.41 -2.5,10.78 -3.75,16.19 -0.55,-2.51 -1.12,-5.02 -1.67,-7.52 -0.17,-0.83 -1.6,-0.89 -1.75,0 -0.18,1.25 -0.5,4.62 -1.33,5.23 -0.59,0.4 -2.74,-0.01 -3.49,-0.02 -3.29,-0.03 -6.58,-0.05 -9.85,-0.07 -3.6,-0.03 -9.24,-0.74 -9.09,4.64 0.09,2.82 2.7,5.69 4.38,7.78 2.41,3.01 5.3,5.62 8.34,8.01 6.26,4.88 13.24,8.68 20.01,12.82l0.91 0c12.24,-6.68 22.12,-15.35 30.83,-26.26 0.72,-0.91 -0.56,-2.2 -1.28,-1.28 -5.75,7.22 -12.11,14.05 -19.72,19.32 -2.43,1.66 -7.75,6.51 -10.76,6.09 -1.41,-0.19 -3.38,-2.01 -4.61,-2.74 -1.91,-1.13 -3.81,-2.27 -5.67,-3.44 -4.12,-2.58 -8.16,-5.34 -11.79,-8.59 -2.18,-1.96 -13.03,-12.35 -5.88,-14.57 2.7,-0.84 7.12,0.06 9.95,0.07 2.82,0.02 5.62,0.03 8.43,0.05 0.42,0 0.76,-0.29 0.88,-0.67 0.21,-0.69 0.41,-1.37 0.6,-2.05 0.56,2.51 1.11,5.02 1.67,7.52 0.2,0.87 1.55,0.86 1.75,0 1.18,-5.12 2.37,-10.23 3.56,-15.36 1.02,8.05 1.38,16.17 2.72,24.19 0.18,1.09 1.66,0.65 1.78,-0.26 0.68,-5.46 2.25,-10.74 3.24,-16.15 0.62,1.36 1.46,2.43 3.11,2.71 4.09,0.66 8.91,0 13.05,-0.03 3.81,-0.03 8.87,0.82 12.05,-1.76 2.75,-2.23 3.31,-6.17 3.6,-9.47 0.98,-11.21 -5.16,-24.44 -17.32,-26.28l0 0 0 0 0 0z"/>
  <path class="fil1" d="M113.24 61.67l0 0 -1.46 0 -1.47 0 0 0 0 -44.89 0 0 1.56 0 1.59 0 0 0 9.63 23.27 0.02 0 0 0 9.47 -23.27 0 0 1.61 0 1.62 0 0 0 0 44.89 0 0 -1.46 0 -1.47 0 0 0 0 -38.56 0.01 0 -9.16 22.41 -0.67 0 -0.66 0 -9.14 -22.13 -0.02 0 0 38.28zm38.71 0.94c-2.77,0 -5.03,-1.05 -6.77,-3.14 -1.76,-2.1 -2.63,-4.79 -2.63,-8.09 0,-3.39 0.91,-6.13 2.73,-8.18 1.82,-2.07 4.22,-3.1 7.21,-3.1 3.19,0 5.71,0.55 7.56,1.64l0.15 0.09 0 0 -0.02 -2.67c0,-3.14 -0.53,-5.42 -1.58,-6.87 -1.06,-1.44 -2.73,-2.17 -5.03,-2.17 -1.32,0 -2.64,0.18 -3.96,0.54 -1.32,0.37 -2.49,0.88 -3.53,1.52l0 0 -1.1 -2.31 0 0c1.13,-0.73 2.5,-1.3 4.09,-1.7 1.6,-0.41 3.23,-0.6 4.93,-0.6 3.02,0 5.3,0.96 6.8,2.9 1.51,1.93 2.26,4.83 2.26,8.71l0 13.09c0,1.72 0.12,3.47 0.38,5.21 0.25,1.75 0.61,3.32 1.05,4.7l0 0 0 0 -2.78 0.43 0 0 -1.06 -5.18 0 0c-0.8,1 -1.66,1.88 -2.6,2.65 -2.06,1.68 -4.08,2.53 -6.1,2.53zm8.27 -8.64l-0.01 -9.37 0 0c-0.42,-0.28 -1.01,-0.56 -1.74,-0.85 -1.82,-0.73 -3.57,-1.1 -5.24,-1.1 -2.35,0 -4.24,0.81 -5.66,2.4 -1.44,1.6 -2.15,3.71 -2.15,6.33 0,2.54 0.63,4.62 1.89,6.24 1.25,1.62 2.86,2.43 4.82,2.43 1.56,0 3.15,-0.7 4.78,-2.1 1.27,-1.09 2.37,-2.42 3.31,-3.98zm18.3 7.7l0 0 -1.43 0 -1.44 0 0 0 0 -33.17 0 0 1.99 0 1.97 0 0 0 5.84 15.47 -0.03 0 0 0 5.79 -15.47 0 0 1.97 0 1.99 0 0 0 0 33.17 0 0 -1.43 0 -1.44 0 0 0 0 -28.61 0.03 0 -6.25 16.7 -0.67 0 -0.66 0 -6.24 -16.51 0.01 0 0 28.42zm35.78 0.94c-2.77,0 -5.03,-1.05 -6.77,-3.14 -1.76,-2.1 -2.63,-4.79 -2.63,-8.09 0,-3.39 0.91,-6.13 2.73,-8.18 1.82,-2.07 4.22,-3.1 7.21,-3.1 3.19,0 5.71,0.55 7.56,1.64l0.15 0.09 0 0 -0.02 -2.67c0,-3.14 -0.53,-5.42 -1.58,-6.87 -1.06,-1.44 -2.73,-2.17 -5.03,-2.17 -1.32,0 -2.64,0.18 -3.96,0.54 -1.32,0.37 -2.49,0.88 -3.53,1.52l0 0 -1.1 -2.31 0 0c1.13,-0.73 2.5,-1.3 4.09,-1.7 1.6,-0.41 3.23,-0.6 4.93,-0.6 3.02,0 5.3,0.96 6.81,2.9 1.5,1.93 2.25,4.83 2.25,8.71l0 13.09c0,1.72 0.12,3.47 0.38,5.21 0.25,1.75 0.61,3.32 1.05,4.7l0 0 0 0 -2.78 0.43 0 0 -1.06 -5.18 0 0c-0.8,1 -1.66,1.88 -2.6,2.65 -2.06,1.68 -4.08,2.53 -6.1,2.53zm8.27 -8.64l-0.01 -9.37 0 0c-0.42,-0.28 -1.01,-0.56 -1.74,-0.85 -1.82,-0.73 -3.57,-1.1 -5.24,-1.1 -2.35,0 -4.24,0.81 -5.66,2.4 -1.44,1.6 -2.15,3.71 -2.15,6.33 0,2.54 0.63,4.62 1.89,6.24 1.25,1.62 2.86,2.43 4.82,2.43 1.56,0 3.15,-0.7 4.78,-2.1 1.27,-1.09 2.37,-2.42 3.31,-3.98z"/>
  <path class="fil2" d="M254.79 61.67l10.13 -22.52 0 0 -10.16 -22.37 0 0 1.53 0 1.55 0 0 0 8.6 19.08 0 0 0 0 8.55 -19.08 0 0 1.55 0 1.56 0 0 0 -10.08 22.48 0 0 10.14 22.41 0 0 -1.51 0 -1.56 0 0 0 -8.64 -19.08 0 0 0 0 -8.55 19.08 0 0 -1.56 0 -1.55 0zm26.29 4.24l2.5 -1.39c0.47,1.82 1.07,3.15 1.82,3.99 0.74,0.84 1.7,1.27 2.91,1.27 1.19,0 2.25,-0.42 3.19,-1.24 0.93,-0.82 1.81,-2.12 2.62,-3.9l2.74 -7.12 0 -0.04 -10.58 -28.98 0 0 1.53 0 1.52 0 0 0 9.06 24.96 0.01 0 0 0 9.36 -24.96 0 0 1.53 0 1.56 0 0 0 -13.61 36.13c-1.29,2.82 -2.59,4.8 -3.93,5.96 -1.32,1.14 -2.98,1.71 -4.95,1.71 -2.01,0 -3.59,-0.51 -4.75,-1.52 -1.15,-1.01 -2,-2.64 -2.53,-4.87zm42.17 -37.41l0 0 14.41 0 0 0 0 30.68 1.81 0 0 9.79 -2.87 0 0 -7.3 -15.78 0 0 7.3 -2.87 0 0 -9.79 1.86 0 -0.03 0c0.73,-1.77 1.39,-4.45 1.95,-8.06 1.01,-6.41 1.52,-13.94 1.52,-22.62zm11.54 2.49l0 0 -8.73 0 0 0c-0.04,7.62 -0.53,14.32 -1.47,20.14 -0.57,3.56 -1.21,6.25 -1.95,8.05l0 0 12.15 0 0 0 0 -28.19zm25.99 31.62c-4.12,0 -7.34,-1.55 -9.67,-4.64 -2.31,-3.08 -3.48,-7.37 -3.48,-12.85 0,-5.51 1.16,-9.81 3.45,-12.91 2.31,-3.1 5.5,-4.64 9.57,-4.64 3.8,0 6.75,1.54 8.87,4.65 2.12,3.1 3.18,7.4 3.18,12.91l0 0.58 0 0 -22.2 0 0 0c0.06,4.5 0.97,8.01 2.71,10.55 1.76,2.52 4.26,3.79 7.54,3.79 1.71,0 3.34,-0.33 4.89,-1.01 1.56,-0.66 2.87,-1.59 3.92,-2.76l0 0 2.14 1.4 0 0c-1.36,1.55 -3,2.75 -4.93,3.63 -1.93,0.86 -3.92,1.3 -5.99,1.3zm8.91 -19.39l0 0c-0.15,-3.91 -0.94,-6.98 -2.33,-9.21 -1.61,-2.59 -3.9,-3.89 -6.86,-3.89 -3.19,0 -5.66,1.3 -7.41,3.89 -1.46,2.23 -2.31,5.3 -2.56,9.21l0 0 19.16 0zm22.26 19.39c-4.11,0 -7.33,-1.55 -9.66,-4.64 -2.32,-3.08 -3.48,-7.37 -3.48,-12.85 0,-5.51 1.15,-9.81 3.45,-12.91 2.31,-3.1 5.5,-4.64 9.57,-4.64 3.79,0 6.74,1.54 8.86,4.65 2.12,3.1 3.18,7.4 3.18,12.91l0 0.58 0 0 -22.19 0 0 0c0.06,4.5 0.96,8.01 2.71,10.55 1.75,2.52 4.26,3.79 7.53,3.79 1.72,0 3.35,-0.33 4.9,-1.01 1.56,-0.66 2.87,-1.59 3.92,-2.76l0 0 2.14 1.4 0 0c-1.37,1.55 -3.01,2.75 -4.93,3.63 -1.93,0.86 -3.93,1.3 -6,1.3zm8.92 -19.39l0 0c-0.16,-3.91 -0.95,-6.98 -2.34,-9.21 -1.61,-2.59 -3.9,-3.89 -6.86,-3.89 -3.19,0 -5.65,1.3 -7.41,3.89 -1.45,2.23 -2.3,5.3 -2.55,9.21l0 0 19.16 0zm20.21 18.45l0 -30.68 0 0 -9.6 0 0 0 0 -1.23 0 -1.26 0 0 22.07 0 0 0 0 1.23 0 1.26 0 0 -9.6 0 0 0 0 30.68 0 0 -1.43 0 -1.44 0z"/>
 </g>
</svg>
